<svg width="40" height="40" viewBox="0 0 40 40" fill="none" xmlns="http://www.w3.org/2000/svg">
<path d="M22.9381 14C23.9149 14.1906 24.8125 14.6683 25.5162 15.3719C26.2199 16.0756 26.6976 16.9733 26.8881 17.95M22.9381 10C24.9674 10.2254 26.8597 11.1342 28.3044 12.577C29.749 14.0198 30.6601 15.911 30.8881 17.94M29.8881 25.92V28.92C29.8892 29.1985 29.8322 29.4742 29.7206 29.7293C29.6091 29.9845 29.4454 30.2136 29.2402 30.4019C29.035 30.5901 28.7927 30.7335 28.5289 30.8227C28.265 30.9119 27.9855 30.9451 27.7081 30.92C24.631 30.5856 21.6751 29.5341 19.0781 27.85C16.6619 26.3147 14.6135 24.2662 13.0781 21.85C11.3881 19.2412 10.3364 16.271 10.0081 13.18C9.98313 12.9035 10.016 12.6248 10.1046 12.3616C10.1932 12.0985 10.3357 11.8567 10.5229 11.6516C10.7101 11.4466 10.9379 11.2827 11.1919 11.1705C11.4459 11.0583 11.7205 11.0003 11.9981 11H14.9981C15.4834 10.9952 15.9539 11.1671 16.3219 11.4835C16.6898 11.8 16.9302 12.2394 16.9981 12.72C17.1247 13.6801 17.3596 14.6227 17.6981 15.53C17.8327 15.8879 17.8618 16.2769 17.782 16.6509C17.7023 17.0248 17.517 17.3681 17.2481 17.64L15.9781 18.91C17.4017 21.4135 19.4746 23.4864 21.9781 24.91L23.2481 23.64C23.52 23.3711 23.8633 23.1858 24.2372 23.1061C24.6112 23.0263 25.0002 23.0555 25.3581 23.19C26.2654 23.5286 27.2081 23.7634 28.1681 23.89C28.6539 23.9585 29.0975 24.2032 29.4146 24.5775C29.7318 24.9518 29.9003 25.4296 29.8881 25.92Z" stroke="white" stroke-width="2" stroke-linecap="round" stroke-linejoin="round"/>
</svg>
